<svg width="21" height="22" viewBox="0 0 21 22" fill="none" xmlns="http://www.w3.org/2000/svg">
<path d="M4.67313 8.66772C5.08817 7.41095 5.88971 6.31747 6.9633 5.54344C8.03689 4.7694 9.32761 4.35441 10.6511 4.35772C12.0814 4.35612 13.468 4.85093 14.5741 5.75772L17.6651 2.66272C16.4419 1.58283 14.9865 0.798836 13.4118 0.371413C11.837 -0.0560113 10.185 -0.115411 8.58365 0.19781C6.98226 0.511032 5.4744 1.18848 4.17673 2.17773C2.87906 3.16698 1.82638 4.44151 1.10013 5.90272L4.67313 8.66772Z" fill="#EA4335"/>
<path d="M14.2331 15.9897C13.1546 16.6466 11.9096 16.9788 10.6471 16.9467C9.32952 16.9494 8.04447 16.5375 6.97392 15.7693C5.90338 15.0012 5.1016 13.9158 4.68213 12.6667L1.09613 15.3867C1.97543 17.1674 3.33662 18.6657 5.02499 19.7113C6.71337 20.7569 8.66121 21.3079 10.6471 21.3017C13.2181 21.3291 15.7032 20.3774 17.5981 18.6397L14.2331 15.9897Z" fill="#34A853"/>
<path d="M17.5981 18.6387C18.6616 17.6056 19.4968 16.3611 20.0499 14.9854C20.6029 13.6098 20.8616 12.1335 20.8091 10.6517C20.8007 10.0001 20.7199 9.35146 20.5681 8.71772H10.6471V12.8317H16.3591C16.2383 13.4749 15.9875 14.0867 15.6219 14.6296C15.2563 15.1725 14.7837 15.6349 14.2331 15.9887L17.5981 18.6387Z" fill="#4A90E2"/>
<path d="M4.68213 12.6657C4.46385 12.0171 4.35273 11.3371 4.35313 10.6527C4.35292 9.97885 4.45958 9.30919 4.66913 8.66872L1.09813 5.90572C0.375612 7.38137 0 9.00268 0 10.6457C0 12.2888 0.375612 13.9101 1.09813 15.3857L4.68213 12.6657Z" fill="#FBBC05"/>
</svg>
