<svg width="23" height="25" viewBox="0 0 23 25" fill="none" xmlns="http://www.w3.org/2000/svg">
<path d="M8.0591 22.6316V18.9347C8.06263 18.4796 8.2458 18.0444 8.56867 17.724C8.89155 17.4035 9.32793 17.2239 9.78265 17.2241H13.2765C13.7332 17.2208 14.1725 17.3992 14.4978 17.7199C14.8232 18.0407 15.0079 18.4776 15.0114 18.9347V22.644C15.0141 23.0307 15.1679 23.4011 15.44 23.6758C15.712 23.9506 16.0807 24.1079 16.4671 24.1141H18.796C19.9027 24.1222 20.9674 23.6901 21.7557 22.9127C22.5441 22.1354 22.9917 21.0764 23 19.9689V9.445C22.992 9.00003 22.8831 8.56269 22.6815 8.16603C22.4798 7.76937 22.1907 7.42377 21.836 7.15534L13.8704 0.826329C13.1895 0.290998 12.3487 0 11.4828 0C10.617 0 9.7762 0.290998 9.09533 0.826329L1.16492 7.16488C0.807896 7.43271 0.517165 7.77909 0.315179 8.17725C0.113193 8.57541 0.00535679 9.01471 0 9.46122L0 19.9679C0.00831258 21.0755 0.45588 22.1344 1.24426 22.9118C2.03264 23.6891 3.09728 24.1213 4.204 24.1132H6.53289C6.72876 24.1147 6.92301 24.0775 7.10454 24.0039C7.28607 23.9302 7.45132 23.8215 7.59084 23.6839C7.73037 23.5463 7.84143 23.3825 7.91769 23.202C7.99394 23.0214 8.0339 22.8276 8.03527 22.6316" fill="#606060"/>
</svg>
