<svg width="340" height="13" viewBox="0 0 340 13" fill="none" xmlns="http://www.w3.org/2000/svg">
<path d="M2.27832 12H0.749023V0.398438H2.27832V12ZM42.3037 12H40.7305L34.6396 2.85059V12H33.1807V0.398438H34.7715L40.8359 9.56543V0.398438H42.3037V12ZM72.4678 12.2021C71.6299 12.2021 70.8652 12.0586 70.1738 11.7715C69.4883 11.4844 68.8994 11.0771 68.4072 10.5498C67.915 10.0225 67.5342 9.38965 67.2646 8.65137C66.9951 7.91309 66.8604 7.09277 66.8604 6.19043C66.8604 5.27637 66.9951 4.4502 67.2646 3.71191C67.5342 2.97363 67.9121 2.34375 68.3984 1.82227C68.8906 1.30078 69.4766 0.899414 70.1562 0.618164C70.8418 0.336914 71.5947 0.196289 72.415 0.196289C73.1064 0.196289 73.748 0.28418 74.3398 0.459961C74.9316 0.635742 75.4502 0.887695 75.8955 1.21582C76.3408 1.53809 76.7012 1.92773 76.9766 2.38477C77.252 2.8418 77.416 3.35449 77.4688 3.92285H75.8691C75.8398 3.54785 75.7373 3.21094 75.5615 2.91211C75.3916 2.61328 75.1572 2.36133 74.8584 2.15625C74.5654 1.95117 74.2139 1.7959 73.8037 1.69043C73.3936 1.5791 72.9395 1.52344 72.4414 1.52344C71.8496 1.52344 71.3076 1.62598 70.8154 1.83105C70.3291 2.03613 69.9102 2.33789 69.5586 2.73633C69.207 3.13477 68.9346 3.62402 68.7412 4.2041C68.5479 4.78418 68.4512 5.44629 68.4512 6.19043C68.4512 6.92871 68.5479 7.58789 68.7412 8.16797C68.9346 8.74805 69.207 9.24023 69.5586 9.64453C69.9102 10.043 70.332 10.3506 70.8242 10.5674C71.3164 10.7783 71.8584 10.8838 72.4502 10.8838C73.2998 10.8838 74.0322 10.749 74.6475 10.4795C75.2627 10.2041 75.7754 9.79102 76.1855 9.24023V7.46484H73.127V6.07617H77.6885V12H76.5811L76.1855 10.7783C75.3945 11.7275 74.1553 12.2021 72.4678 12.2021ZM112.194 12H110.524L109.435 8.88867C109.335 8.61914 109.203 8.37305 109.039 8.15039C108.875 7.92188 108.685 7.72559 108.468 7.56152C108.251 7.39746 108.008 7.27148 107.738 7.18359C107.475 7.08984 107.193 7.04297 106.895 7.04297H104.047V12H102.509V0.398438H107.65C107.961 0.398438 108.257 0.407227 108.538 0.424805C108.819 0.436523 109.086 0.46875 109.338 0.521484C109.596 0.568359 109.839 0.641602 110.067 0.741211C110.296 0.84082 110.513 0.978516 110.718 1.1543C111.069 1.46484 111.336 1.83984 111.518 2.2793C111.699 2.71875 111.79 3.17285 111.79 3.6416C111.79 4.0459 111.729 4.41797 111.605 4.75781C111.488 5.09766 111.315 5.39941 111.087 5.66309C110.864 5.92676 110.592 6.14941 110.27 6.33105C109.947 6.5127 109.584 6.6416 109.18 6.71777V6.74414C109.988 6.99609 110.609 7.69629 111.043 8.84473L112.194 12ZM104.047 5.6543H107.492C107.967 5.6543 108.374 5.61914 108.714 5.54883C109.06 5.47852 109.341 5.36426 109.558 5.20605C109.78 5.04785 109.941 4.83984 110.041 4.58203C110.146 4.32422 110.199 4.01074 110.199 3.6416C110.199 2.97363 109.994 2.48145 109.584 2.16504C109.174 1.84277 108.553 1.68164 107.721 1.68164H104.047V5.6543ZM145.382 12H136.716V0.398438H145.118V1.77832H138.254V5.30273H144.67V6.68262H138.254V10.6201H145.382V12ZM179.642 6.1377C179.642 10.0459 177.67 12 173.727 12H170.044V0.398438H173.727C177.67 0.398438 179.642 2.31152 179.642 6.1377ZM178.06 6.1377C178.06 5.45801 177.992 4.84863 177.857 4.30957C177.723 3.77051 177.488 3.31348 177.154 2.93848C176.826 2.56348 176.381 2.27637 175.818 2.07715C175.262 1.87793 174.559 1.77832 173.709 1.77832H171.582V10.6201H173.709C174.553 10.6201 175.253 10.5205 175.81 10.3213C176.372 10.1162 176.82 9.82031 177.154 9.43359C177.488 9.04688 177.723 8.57812 177.857 8.02734C177.992 7.4707 178.06 6.84082 178.06 6.1377ZM205.991 12H204.462V0.398438H205.991V12ZM239.935 12H231.269V0.398438H239.671V1.77832H232.807V5.30273H239.223V6.68262H232.807V10.6201H239.935V12ZM273.72 12H272.146L266.056 2.85059V12H264.597V0.398438H266.188L272.252 9.56543V0.398438H273.72V12ZM307.065 1.77832H303.225V12H301.687V1.77832H297.872V0.398438H307.065V1.77832ZM335.604 12.2021C334.783 12.2021 334.065 12.1055 333.45 11.9121C332.841 11.7188 332.331 11.4492 331.921 11.1035C331.517 10.752 331.209 10.3359 330.998 9.85547C330.787 9.375 330.673 8.84473 330.655 8.26465H332.132C332.173 8.7041 332.29 9.08496 332.483 9.40723C332.677 9.72949 332.923 9.99609 333.222 10.207C333.526 10.418 333.875 10.5732 334.268 10.6729C334.66 10.7725 335.079 10.8223 335.524 10.8223C335.958 10.8223 336.351 10.7783 336.702 10.6904C337.06 10.5967 337.364 10.4648 337.616 10.2949C337.868 10.1191 338.062 9.91113 338.196 9.6709C338.337 9.4248 338.407 9.14941 338.407 8.84473C338.407 8.52832 338.343 8.25879 338.214 8.03613C338.091 7.81348 337.886 7.62012 337.599 7.45605C337.317 7.29199 336.945 7.14551 336.482 7.0166C336.025 6.88184 335.46 6.74414 334.786 6.60352C334.136 6.45703 333.573 6.29004 333.099 6.10254C332.63 5.90918 332.243 5.68652 331.938 5.43457C331.64 5.17676 331.417 4.88379 331.271 4.55566C331.124 4.22754 331.051 3.84668 331.051 3.41309C331.051 2.9502 331.15 2.52246 331.35 2.12988C331.549 1.73145 331.83 1.3916 332.193 1.11035C332.557 0.823242 332.99 0.600586 333.494 0.442383C334.004 0.27832 334.566 0.196289 335.182 0.196289C335.832 0.196289 336.424 0.275391 336.957 0.433594C337.496 0.591797 337.959 0.823242 338.346 1.12793C338.738 1.42676 339.043 1.79297 339.26 2.22656C339.482 2.6543 339.603 3.14062 339.62 3.68555H338.135C337.977 2.28516 337.016 1.58496 335.252 1.58496C334.391 1.58496 333.726 1.74609 333.257 2.06836C332.794 2.38477 332.562 2.81543 332.562 3.36035C332.562 3.60645 332.604 3.81738 332.686 3.99316C332.773 4.16309 332.92 4.31543 333.125 4.4502C333.336 4.5791 333.611 4.69922 333.951 4.81055C334.291 4.91602 334.716 5.02148 335.226 5.12695C335.571 5.19727 335.926 5.27344 336.289 5.35547C336.658 5.4375 337.016 5.54004 337.361 5.66309C337.713 5.78027 338.041 5.92383 338.346 6.09375C338.656 6.26367 338.926 6.46875 339.154 6.70898C339.389 6.94922 339.573 7.2334 339.708 7.56152C339.843 7.88965 339.91 8.27344 339.91 8.71289C339.91 9.22266 339.802 9.69141 339.585 10.1191C339.374 10.5469 339.075 10.916 338.688 11.2266C338.308 11.5312 337.854 11.7715 337.326 11.9473C336.799 12.1172 336.225 12.2021 335.604 12.2021Z" fill="black"/>
</svg>
