<svg width="25" height="25" viewBox="0 0 25 25" fill="none" xmlns="http://www.w3.org/2000/svg">
<path d="M19.375 0.125H2.875C1.34875 0.125 0.125 1.3625 0.125 2.875V22.125C0.125 23.6375 1.34875 24.875 2.875 24.875H22.125C23.6375 24.875 24.875 23.6375 24.875 22.125V5.625L19.375 0.125ZM12.5 22.125C10.2175 22.125 8.375 20.2825 8.375 18C8.375 15.7175 10.2175 13.875 12.5 13.875C14.7825 13.875 16.625 15.7175 16.625 18C16.625 20.2825 14.7825 22.125 12.5 22.125ZM16.625 8.375H2.875V2.875H16.625V8.375Z" fill="#FFFAFA"/>
</svg>
