<svg width="27" height="26" viewBox="0 0 27 26" fill="none" xmlns="http://www.w3.org/2000/svg">
<path d="M25.7227 22.3979L25.346 22.7589L23.6742 24.361L23.3282 24.6926L22.9823 24.361L18.2272 19.8029C16.319 21.154 14.0076 21.8833 11.6324 21.88M25.7227 22.3979L22.7661 11.1893C22.7657 5.26874 17.7581 0.5 11.6331 0.5C5.50774 0.5 0.5 5.26914 0.5 11.19C0.5 17.1107 5.50737 21.8797 11.6324 21.88M25.7227 22.3979L25.3459 22.0369M25.7227 22.3979L25.3459 22.0369M11.6324 21.88L11.6331 21.38V21.88C11.6328 21.88 11.6326 21.88 11.6324 21.88ZM25.3459 22.0369L20.6158 17.5049M25.3459 22.0369L20.6158 17.5049M20.6158 17.5049C22.0122 15.679 22.7693 13.4673 22.7661 11.19L20.6158 17.5049ZM19.4032 11.19V11.1908C19.4064 13.1135 18.6259 14.9656 17.2213 16.3511L17.0492 16.516C15.6024 17.8631 13.6595 18.6186 11.6338 18.6156H11.6331C7.31913 18.6156 3.8629 15.2724 3.8629 11.19C3.8629 7.10656 7.31908 3.76445 11.6331 3.76445C15.9459 3.76445 19.4032 7.1066 19.4032 11.19Z" fill="#606060" stroke="#606060"/>
</svg>
