<svg width="17" height="17" viewBox="0 0 17 17" fill="none" xmlns="http://www.w3.org/2000/svg">
<path d="M8.288 2.41452e-07C6.64879 2.41452e-07 5.04639 0.486083 3.68344 1.39678C2.32048 2.30748 1.25819 3.60189 0.63089 5.11632C0.00359106 6.63075 -0.160539 8.29719 0.159255 9.90491C0.47905 11.5126 1.2684 12.9894 2.4275 14.1485C3.5866 15.3076 5.06338 16.097 6.67109 16.4167C8.27881 16.7365 9.94525 16.5724 11.4597 15.9451C12.9741 15.3178 14.2685 14.2555 15.1792 12.8926C16.0899 11.5296 16.576 9.92721 16.576 8.288C16.5763 7.19953 16.3621 6.12167 15.9457 5.11601C15.5292 4.11034 14.9188 3.19658 14.1491 2.42691C13.3794 1.65725 12.4657 1.04677 11.46 0.630351C10.4543 0.213933 9.37647 -0.000262515 8.288 2.41452e-07ZM9.045 12.113H7.525V6.371H9.045V12.113ZM8.284 5.746C8.12694 5.74109 7.97479 5.69003 7.84656 5.59919C7.71833 5.50836 7.6197 5.38177 7.56296 5.23522C7.50623 5.08868 7.49391 4.92867 7.52754 4.77517C7.56118 4.62166 7.63927 4.48147 7.75209 4.37207C7.8649 4.26268 8.00743 4.18893 8.1619 4.16003C8.31636 4.13114 8.47592 4.14837 8.62065 4.20959C8.76538 4.2708 8.88887 4.37329 8.97572 4.50425C9.06257 4.63522 9.10893 4.78886 9.109 4.946C9.10906 5.0532 9.08756 5.15931 9.04581 5.25803C9.00405 5.35676 8.94288 5.44609 8.86592 5.52071C8.78897 5.59533 8.6978 5.65373 8.59783 5.69243C8.49787 5.73113 8.39115 5.74935 8.284 5.746V5.746Z" fill="black"/>
</svg>
